<svg width="55" height="89" viewBox="0 0 55 89" fill="none" xmlns="http://www.w3.org/2000/svg">
<rect x="2.49219" y="3.19531" width="50.2824" height="32.8389" transform="rotate(-3.03687 2.49219 3.19531)" fill="#0C0C2B"/>
<rect x="18.4453" y="6.47656" width="5.69796" height="5.69796" transform="rotate(-3.62622 18.4453 6.47656)" fill="#2C2C99"/>
<rect x="18.8438" y="12.8281" width="5.69796" height="5.69796" transform="rotate(-3.62622 18.8438 12.8281)" fill="#2C2C99"/>
<rect x="25.6406" y="18.7734" width="5.69796" height="5.69796" transform="rotate(-3.62622 25.6406 18.7734)" fill="#41C7F2"/>
<rect x="26.0391" y="25.125" width="5.69796" height="5.69796" transform="rotate(-3.62622 26.0391 25.125)" fill="#41C7F2"/>
<rect x="19.2422" y="19.1875" width="5.69796" height="5.69796" transform="rotate(-3.62622 19.2422 19.1875)" fill="#2C2C99"/>
<rect x="24.8438" y="6.07812" width="5.69796" height="5.69796" transform="rotate(-3.62622 24.8438 6.07812)" fill="#2C2C99"/>
<rect x="31.6406" y="12.0156" width="5.69796" height="5.69796" transform="rotate(-3.62622 31.6406 12.0156)" fill="#41C7F2"/>
<rect x="25.2422" y="12.4219" width="5.69796" height="5.69796" transform="rotate(-3.62622 25.2422 12.4219)" fill="#5050F9"/>
<rect x="32.0391" y="18.375" width="5.69796" height="5.69796" transform="rotate(-3.62622 32.0391 18.375)" fill="#41C7F2"/>
<rect y="1.8125" width="4" height="86.625" transform="rotate(-2.96932 0 1.8125)" fill="#2C2C99"/>
</svg>
