<svg width="1087" height="777" viewBox="0 0 1087 777" fill="none" xmlns="http://www.w3.org/2000/svg">
<path d="M767.552 0.859375C766.898 7.19421 772.213 13.5407 773.929 19.6902C775.631 25.7931 778.316 32.8891 784.48 34.353C786.789 34.9008 789.225 34.5127 791.567 34.8985C797.179 35.8228 801.061 40.8394 804.357 45.476C798.555 55.86 785.429 59.1236 773.765 61.4547C762.102 63.7858 748.971 67.2487 743.422 77.7703C741.506 81.4033 740.774 85.9222 742.585 89.6089C743.812 92.1044 746.032 93.9355 747.85 96.0393C758.402 108.246 752.88 123.261 748.574 136.53C743.901 150.933 741.606 168.75 752.32 179.449C760.818 187.937 774.544 188.484 786.21 185.629C797.876 182.775 808.779 177.13 820.597 174.984C834.243 172.507 848.301 174.842 861.769 178.154C880.209 182.69 898.481 189.91 914.062 200.907C922.515 206.874 945.747 224.244 942.087 236.634C939.369 245.835 925.521 259.27 918.669 266.629C906.969 279.196 890.196 289.092 876.645 299.646C871.245 303.852 865.401 308.831 864.745 315.643C863.485 328.719 880.517 334.622 893.578 336.018C942.76 341.275 991.944 346.533 1041.13 351.79C1051.34 352.882 1061.89 354.078 1070.8 359.184C1079.72 364.29 1086.61 374.416 1084.67 384.504C1080.16 407.884 1038.48 411.305 1021.92 423.735C1007.39 434.642 996.432 452.09 998.239 470.167C1000.47 492.444 1020.11 508.179 1032.89 526.564C1035.87 530.858 1038.62 535.788 1038.15 540.997C1037.54 547.74 1031.58 552.943 1025.2 555.189C1018.81 557.436 1011.89 557.438 1005.17 558.22C981.951 560.918 968.06 574.201 949.114 585.648C931.387 596.359 913.132 597.528 892.91 596.875C882.269 596.531 870.532 597.179 860.671 601.595C848.009 607.264 848.613 613.952 842.873 624.225C830.305 646.718 798.576 656.495 774.575 657.828C746.989 659.361 719.747 652.236 692.958 645.478C666.169 638.72 638.665 632.224 611.179 635.033C588.991 637.302 567.93 645.527 546.713 652.404C482.223 673.306 413.847 682.153 346.161 678.353C327.706 677.317 309.37 675.811 290.873 676.567C284.722 676.819 278.657 675.095 272.602 675.958C263.398 677.269 254.268 681.721 245.777 685.296C230.712 691.638 215.646 697.98 200.581 704.322C191.506 708.141 181.606 712.034 172.076 709.565C161.209 706.751 153.758 696.368 143.145 692.709C133.479 689.377 122.881 692.13 113.09 695.076C105.659 697.312 97.2359 700.637 94.9502 708.053C94.0469 710.984 94.2894 714.134 93.8394 717.168C92.9187 723.381 88.4324 728.006 87.0256 733.956C85.3915 740.87 85.3308 745.172 77.7022 748.604C70.548 751.822 62.3494 751.754 54.5705 750.74C46.7915 749.726 39.1057 747.827 31.265 747.58C23.4242 747.333 15.1418 748.952 9.22767 754.106C3.3136 759.26 0.63164 768.574 4.69596 775.285" stroke="#25D1F6" stroke-width="3.89182" stroke-miterlimit="10" stroke-dasharray="11.12 5.56 5.56 5.56"/>
</svg>
