<?xml version="1.0" encoding="UTF-8"?>
<svg id="Layer_2" data-name="Layer 2" xmlns="http://www.w3.org/2000/svg" viewBox="0 0 568.66 151.53">
  <defs>
    <style>
      .cls-1 {
        fill: #000;
      }

      .cls-1, .cls-2, .cls-3, .cls-4 {
        stroke-width: 0px;
      }

      .cls-2 {
        fill: #3e3ed6;
      }

      .cls-3 {
        fill: #2c2c99;
      }

      .cls-4 {
        fill: #5e5ad6;
      }
    </style>
  </defs>
  <g id="Layer_1-2" data-name="Layer 1">
    <g>
      <rect class="cls-4" width="35.62" height="35.62"/>
      <rect class="cls-4" x="38.81" width="35.62" height="35.62"/>
      <rect class="cls-4" y="38.64" width="35.62" height="35.62"/>
      <rect class="cls-4" y="77.27" width="35.62" height="35.62"/>
      <rect class="cls-2" x="38.81" y="38.64" width="35.62" height="35.62"/>
      <rect class="cls-3" x="77.61" y="38.64" width="35.62" height="35.62"/>
      <rect class="cls-3" x="38.81" y="77.27" width="35.62" height="35.62"/>
      <rect class="cls-3" x="38.81" y="115.91" width="35.62" height="35.62"/>
      <rect class="cls-3" x="77.61" y="77.27" width="35.62" height="35.62"/>
    </g>
    <g>
      <g>
        <path class="cls-1" d="M158.43,104.37l-4.75,16.78h-1.87l-4.22-14.3-4.32,14.3-1.82.02-4.66-16.8h1.8l3.84,14.71,4.3-14.71h1.87l4.18,14.71,3.86-14.71h1.8Z"/>
        <path class="cls-1" d="M175.44,105.74v6.26h6.36v1.39h-6.36v6.36h7.08v1.39h-8.76v-16.8h8.76v1.39h-7.08Z"/>
        <path class="cls-1" d="M208.85,113.92c.66.79.98,1.7.98,2.74,0,.85-.21,1.61-.64,2.29-.42.68-1.04,1.21-1.86,1.61-.82.39-1.79.59-2.93.59h-5.81v-16.78h5.64c1.7,0,2.99.39,3.88,1.18.89.78,1.33,1.8,1.33,3.05,0,1.04-.28,1.88-.84,2.53-.56.65-1.28,1.1-2.16,1.36.94.18,1.74.66,2.4,1.44ZM200.28,111.79h3.91c1.14,0,2.01-.27,2.63-.8.62-.54.92-1.28.92-2.22s-.31-1.66-.92-2.18c-.62-.53-1.52-.79-2.7-.79h-3.84v6ZM207.13,118.87c.68-.58,1.02-1.37,1.02-2.38s-.36-1.81-1.07-2.41c-.71-.6-1.67-.9-2.87-.9h-3.94v6.55h4.01c1.22,0,2.16-.29,2.84-.86Z"/>
        <path class="cls-1" d="M254.78,105.38c1.33.67,2.34,1.64,3.05,2.9.7,1.26,1.05,2.77,1.05,4.51s-.35,3.22-1.05,4.48c-.71,1.26-1.72,2.22-3.05,2.88s-2.92,1-4.78,1h-4.97v-16.78h4.97c1.86,0,3.45.34,4.78,1.01ZM255.35,117.92c1.22-1.22,1.84-2.93,1.84-5.12s-.61-3.93-1.84-5.17-3-1.86-5.34-1.86h-3.29v13.99h3.29c2.34,0,4.12-.61,5.34-1.84Z"/>
        <path class="cls-1" d="M276.43,105.74v6.26h6.36v1.39h-6.36v6.36h7.08v1.39h-8.76v-16.8h8.76v1.39h-7.08Z"/>
        <path class="cls-1" d="M301.76,120.74c-.84-.38-1.5-.92-1.98-1.61-.48-.69-.74-1.46-.77-2.3h1.78c.08.82.44,1.53,1.08,2.15.64.62,1.58.92,2.81.92,1.14,0,2.04-.29,2.7-.88.66-.58,1-1.32,1-2.22,0-.72-.18-1.3-.55-1.74-.37-.44-.82-.77-1.37-.98-.54-.22-1.3-.45-2.26-.71-1.12-.3-2.01-.6-2.66-.89-.66-.29-1.22-.74-1.68-1.34s-.7-1.43-.7-2.47c0-.86.22-1.63.67-2.32.45-.68,1.08-1.21,1.9-1.6.82-.38,1.75-.58,2.81-.58,1.55,0,2.8.38,3.76,1.14.95.76,1.5,1.74,1.64,2.94h-1.82c-.11-.69-.49-1.3-1.13-1.84-.64-.54-1.5-.8-2.59-.8-1.01,0-1.85.27-2.52.8-.67.54-1.01,1.27-1.01,2.2,0,.7.18,1.27.55,1.7s.83.76,1.38.98,1.3.46,2.24.72c1.09.3,1.97.6,2.64.9.67.3,1.24.75,1.7,1.36.46.61.7,1.42.7,2.45,0,.78-.21,1.53-.62,2.23-.42.7-1.03,1.27-1.85,1.7-.82.43-1.79.65-2.93.65s-2.08-.19-2.92-.58Z"/>
        <path class="cls-1" d="M327.77,104.37v16.78h-1.68v-16.78h1.68Z"/>
        <path class="cls-1" d="M357.55,109.27c-.48-1.1-1.21-1.97-2.2-2.6-.98-.63-2.14-.95-3.47-.95-1.25,0-2.37.29-3.36.86s-1.78,1.4-2.35,2.46c-.58,1.06-.86,2.3-.86,3.71s.29,2.65.86,3.72,1.36,1.9,2.35,2.47,2.11.86,3.36.86c1.17,0,2.22-.25,3.16-.76.94-.5,1.69-1.22,2.26-2.16.57-.94.89-2.03.97-3.28h-7.06v-1.37h8.83v1.22c-.08,1.47-.48,2.8-1.2,4-.72,1.19-1.68,2.13-2.89,2.82-1.21.69-2.56,1.03-4.07,1.03s-2.96-.36-4.22-1.09c-1.26-.73-2.26-1.74-2.99-3.05-.73-1.3-1.09-2.78-1.09-4.43s.36-3.12,1.09-4.43c.73-1.3,1.72-2.32,2.99-3.05,1.26-.73,2.67-1.09,4.22-1.09,1.79,0,3.36.45,4.7,1.34,1.34.9,2.32,2.14,2.93,3.74h-1.97Z"/>
        <path class="cls-1" d="M388.54,121.15h-1.68l-9.29-14.11v14.11h-1.68v-16.78h1.68l9.29,14.09v-14.09h1.68v16.78Z"/>
        <path class="cls-1" d="M426.64,120.74c-.84-.38-1.5-.92-1.98-1.61-.48-.69-.74-1.46-.77-2.3h1.78c.08.82.44,1.53,1.08,2.15.64.62,1.58.92,2.81.92,1.14,0,2.04-.29,2.7-.88.66-.58,1-1.32,1-2.22,0-.72-.18-1.3-.55-1.74-.37-.44-.82-.77-1.37-.98-.54-.22-1.3-.45-2.26-.71-1.12-.3-2.01-.6-2.66-.89-.66-.29-1.22-.74-1.68-1.34s-.7-1.43-.7-2.47c0-.86.22-1.63.67-2.32.45-.68,1.08-1.21,1.9-1.6.82-.38,1.75-.58,2.81-.58,1.55,0,2.8.38,3.76,1.14.95.76,1.5,1.74,1.64,2.94h-1.82c-.11-.69-.49-1.3-1.13-1.84-.64-.54-1.5-.8-2.59-.8-1.01,0-1.85.27-2.52.8-.67.54-1.01,1.27-1.01,2.2,0,.7.18,1.27.55,1.7s.83.76,1.38.98,1.3.46,2.24.72c1.09.3,1.97.6,2.64.9.67.3,1.24.75,1.7,1.36.46.61.7,1.42.7,2.45,0,.78-.21,1.53-.62,2.23-.42.7-1.03,1.27-1.85,1.7-.82.43-1.79.65-2.93.65s-2.08-.19-2.92-.58Z"/>
        <path class="cls-1" d="M460.78,104.37v1.39h-4.66v15.38h-1.68v-15.38h-4.68v-1.39h11.02Z"/>
        <path class="cls-1" d="M477.82,104.37v10.56c0,1.66.4,2.9,1.19,3.7.79.8,1.88,1.2,3.25,1.2s2.45-.4,3.23-1.19c.78-.79,1.16-2.03,1.16-3.71v-10.56h1.68v10.54c0,2.13-.56,3.73-1.69,4.8s-2.6,1.61-4.4,1.61-3.28-.54-4.4-1.61-1.69-2.67-1.69-4.8v-10.54h1.68Z"/>
        <path class="cls-1" d="M514.58,105.38c1.33.67,2.34,1.64,3.05,2.9.7,1.26,1.06,2.77,1.06,4.51s-.35,3.22-1.06,4.48c-.7,1.26-1.72,2.22-3.05,2.88s-2.92,1-4.78,1h-4.97v-16.78h4.97c1.86,0,3.45.34,4.78,1.01ZM515.15,117.92c1.22-1.22,1.84-2.93,1.84-5.12s-.61-3.93-1.84-5.17c-1.22-1.24-3-1.86-5.34-1.86h-3.29v13.99h3.29c2.34,0,4.12-.61,5.34-1.84Z"/>
        <path class="cls-1" d="M536.23,104.37v16.78h-1.68v-16.78h1.68Z"/>
        <path class="cls-1" d="M556.13,120.23c-1.26-.73-2.26-1.74-2.99-3.05-.73-1.3-1.09-2.78-1.09-4.43s.36-3.12,1.09-4.43c.73-1.3,1.72-2.32,2.99-3.05,1.26-.73,2.67-1.09,4.22-1.09s2.98.36,4.25,1.09c1.26.73,2.26,1.74,2.98,3.05.72,1.3,1.08,2.78,1.08,4.43s-.36,3.12-1.08,4.43c-.72,1.3-1.71,2.32-2.98,3.05-1.26.73-2.68,1.09-4.25,1.09s-2.96-.36-4.22-1.09ZM563.71,118.99c.99-.58,1.78-1.4,2.35-2.48s.86-2.33.86-3.76-.29-2.67-.86-3.74c-.58-1.07-1.36-1.9-2.35-2.47-.99-.58-2.11-.86-3.36-.86s-2.37.29-3.36.86c-.99.58-1.78,1.4-2.35,2.47-.58,1.07-.86,2.32-.86,3.74s.29,2.68.86,3.76,1.36,1.91,2.35,2.48,2.11.86,3.36.86,2.37-.29,3.36-.86Z"/>
      </g>
      <g>
        <path class="cls-1" d="M173.44,68.42c-1.34,2.42-3.41,4.38-6.19,5.87-2.78,1.49-6.24,2.23-10.37,2.23h-7.63v18.14h-12.31v-50.54h19.94c4.03,0,7.44.7,10.22,2.09,2.78,1.39,4.87,3.31,6.26,5.76,1.39,2.45,2.09,5.26,2.09,8.42,0,2.93-.67,5.6-2.02,8.03ZM161.2,65.08c1.15-1.1,1.73-2.66,1.73-4.68s-.58-3.58-1.73-4.68c-1.15-1.1-2.91-1.66-5.26-1.66h-6.7v12.67h6.7c2.35,0,4.1-.55,5.26-1.66Z"/>
        <path class="cls-1" d="M194.18,54.49v40.18h-12.31v-40.18h12.31Z"/>
        <path class="cls-1" d="M226.87,94.67l-7.7-11.16-6.48,11.16h-13.32l13.25-20.52-13.61-19.66h13.82l7.7,11.09,6.48-11.09h13.32l-13.46,20.23,13.82,19.94h-13.82Z"/>
        <path class="cls-1" d="M283.1,77.53h-27.86c.19,2.5,1,4.41,2.41,5.72,1.42,1.32,3.16,1.98,5.22,1.98,3.07,0,5.21-1.3,6.41-3.89h13.1c-.67,2.64-1.88,5.02-3.64,7.13s-3.95,3.77-6.59,4.97c-2.64,1.2-5.59,1.8-8.86,1.8-3.94,0-7.44-.84-10.51-2.52-3.07-1.68-5.47-4.08-7.2-7.2-1.73-3.12-2.59-6.77-2.59-10.94s.85-7.82,2.56-10.94c1.7-3.12,4.09-5.52,7.16-7.2,3.07-1.68,6.6-2.52,10.58-2.52s7.34.82,10.37,2.45c3.02,1.63,5.39,3.96,7.09,6.98,1.7,3.02,2.56,6.55,2.56,10.58,0,1.15-.07,2.35-.22,3.6ZM270.71,70.69c0-2.11-.72-3.79-2.16-5.04-1.44-1.25-3.24-1.87-5.4-1.87s-3.8.6-5.22,1.8c-1.42,1.2-2.29,2.9-2.63,5.11h15.41Z"/>
        <path class="cls-1" d="M302.11,41.39v53.28h-12.31v-53.28h12.31Z"/>
        <path class="cls-1" d="M347.54,68.42c-1.34,2.42-3.41,4.38-6.19,5.87-2.79,1.49-6.24,2.23-10.37,2.23h-7.63v18.14h-12.31v-50.54h19.94c4.03,0,7.44.7,10.22,2.09,2.78,1.39,4.87,3.31,6.26,5.76,1.39,2.45,2.09,5.26,2.09,8.42,0,2.93-.67,5.6-2.02,8.03ZM335.3,65.08c1.15-1.1,1.73-2.66,1.73-4.68s-.58-3.58-1.73-4.68c-1.15-1.1-2.9-1.66-5.26-1.66h-6.7v12.67h6.7c2.35,0,4.1-.55,5.26-1.66Z"/>
        <path class="cls-1" d="M393.62,77.53h-27.86c.19,2.5,1,4.41,2.41,5.72,1.42,1.32,3.16,1.98,5.22,1.98,3.07,0,5.21-1.3,6.41-3.89h13.1c-.67,2.64-1.88,5.02-3.64,7.13s-3.95,3.77-6.59,4.97c-2.64,1.2-5.59,1.8-8.86,1.8-3.94,0-7.44-.84-10.51-2.52-3.07-1.68-5.47-4.08-7.2-7.2-1.73-3.12-2.59-6.77-2.59-10.94s.85-7.82,2.56-10.94c1.7-3.12,4.09-5.52,7.16-7.2,3.07-1.68,6.6-2.52,10.58-2.52s7.34.82,10.37,2.45c3.02,1.63,5.39,3.96,7.09,6.98,1.7,3.02,2.56,6.55,2.56,10.58,0,1.15-.07,2.35-.22,3.6ZM381.23,70.69c0-2.11-.72-3.79-2.16-5.04-1.44-1.25-3.24-1.87-5.4-1.87s-3.8.6-5.22,1.8c-1.42,1.2-2.29,2.9-2.63,5.11h15.41Z"/>
        <path class="cls-1" d="M418.03,55.97c2.16-1.27,4.56-1.91,7.2-1.91v13.03h-3.38c-3.07,0-5.38.66-6.91,1.98-1.54,1.32-2.3,3.64-2.3,6.95v18.65h-12.31v-40.18h12.31v6.7c1.44-2.21,3.24-3.95,5.4-5.22Z"/>
        <path class="cls-1" d="M451.29,64.72h-6.62v29.95h-12.31v-29.95h-4.46v-10.22h4.46v-1.15c0-4.94,1.42-8.7,4.25-11.27,2.83-2.57,6.98-3.85,12.46-3.85.91,0,1.58.02,2.02.07v10.44c-2.35-.14-4.01.19-4.97,1.01-.96.82-1.44,2.28-1.44,4.39v.36h6.62v10.22Z"/>
        <path class="cls-1" d="M494.7,77.53h-27.86c.19,2.5,1,4.41,2.41,5.72,1.42,1.32,3.16,1.98,5.22,1.98,3.07,0,5.21-1.3,6.41-3.89h13.1c-.67,2.64-1.88,5.02-3.64,7.13s-3.95,3.77-6.59,4.97c-2.64,1.2-5.59,1.8-8.86,1.8-3.94,0-7.44-.84-10.51-2.52-3.07-1.68-5.47-4.08-7.2-7.2-1.73-3.12-2.59-6.77-2.59-10.94s.85-7.82,2.56-10.94c1.7-3.12,4.09-5.52,7.16-7.2,3.07-1.68,6.6-2.52,10.58-2.52s7.34.82,10.37,2.45c3.02,1.63,5.39,3.96,7.09,6.98,1.7,3.02,2.56,6.55,2.56,10.58,0,1.15-.07,2.35-.22,3.6ZM482.32,70.69c0-2.11-.72-3.79-2.16-5.04-1.44-1.25-3.24-1.87-5.4-1.87s-3.8.6-5.22,1.8c-1.42,1.2-2.29,2.9-2.63,5.11h15.41Z"/>
        <path class="cls-1" d="M525.95,94.67l-12.24-16.85v16.85h-12.31v-53.28h12.31v29.45l12.17-16.34h15.19l-16.7,20.16,16.85,20.02h-15.26Z"/>
        <path class="cls-1" d="M568.29,84.23v10.44h-6.26c-4.46,0-7.94-1.09-10.44-3.28-2.5-2.18-3.74-5.75-3.74-10.69v-15.98h-4.9v-10.22h4.9v-9.79h12.31v9.79h8.06v10.22h-8.06v16.13c0,1.2.29,2.06.86,2.59.58.53,1.54.79,2.88.79h4.39Z"/>
      </g>
      <rect class="cls-4" x="184.56" y="37.8" width="12.31" height="12.31" transform="translate(79.35 204.9) rotate(-68.3)"/>
    </g>
  </g>
</svg>