<?xml version="1.0" encoding="UTF-8"?>
<svg id="Layer_2" xmlns="http://www.w3.org/2000/svg" viewBox="0 0 101.51 35.05">
  <defs>
    <style>
      .cls-1 {
        fill: #484ba0;
      }
    </style>
  </defs>
  <g id="Layer_1-2" data-name="Layer_1">
    <g>
      <path class="cls-1" d="M98.79,1.72c.06.03.14.04.21.07-.18.06-.28.06-.21-.07Z"/>
      <path class="cls-1" d="M101.5,1.82c-.68.1-1.76.25-2.49-.03.59-.19,2.15-1.01,2.49.03Z"/>
      <path class="cls-1" d="M98.44,0l.9.2c-.46.36-.44-.16-.9-.2Z"/>
      <polygon class="cls-1" points="98.88 .96 98.89 1.36 98.39 1.04 98.88 .96"/>
      <path class="cls-1" d="M56.65,12.83c.13.15.23.31.24.56l-.24-.56Z"/>
      <path class="cls-1" d="M54.3,11.58c-.19-.02-.31-.01-.42,0,.11-.06.22-.05.42,0Z"/>
      <path class="cls-1" d="M58.35,12.25l-.33.14c.09-.08.21-.14.33-.14Z"/>
      <path class="cls-1" d="M79.48,6.27c.37.22.72.43.98.56-.57.41-.74-.22-.98-.56Z"/>
      <path class="cls-1" d="M43.92,8.43v.33c-.13-.11-.21-.23,0-.33Z"/>
      <path class="cls-1" d="M52.51,6.56c.05.18.07.31.06.42-.04-.02-.08-.03-.12-.05l.06-.37Z"/>
      <path class="cls-1" d="M59.55,11.3v-.04s.33.13.33.13c-.13.09-.24.06-.33-.09Z"/>
      <path class="cls-1" d="M41.07,8.8c-.17-.13-.35-.31-.54-.56.3.06.52.32.54.56Z"/>
      <path class="cls-1" d="M53.83,11.59s0,0,0-.01c.01,0,.04,0,.05,0-.02,0-.03,0-.05.01Z"/>
      <path class="cls-1" d="M55.41,6.17c-.16-.02-.31-.02-.49-.05.17-.12.35-.07.49.05Z"/>
      <path class="cls-1" d="M79.48,6.27c-.1-.06-.21-.12-.32-.19.13-.02.23.07.32.19Z"/>
      <path class="cls-1" d="M96.61,2.74c-.27.04-.37-.17-.45-.39.17.08.32.21.45.39Z"/>
      <path class="cls-1" d="M1.82,32.3l-.1.04s.07-.05.1-.04Z"/>
      <path class="cls-1" d="M11.58,28.34c.07.04.16.09.23.17-.05.11-.15,0-.23-.17Z"/>
      <path class="cls-1" d="M17.43,17.3c-.48.69-1.52.09-2.11.31l.35.28-.7-.05.23.52c-1.05.17-1.98,1.23-2.69.56l.48.78-1.29-.21.82.31c-1.04.66-3.04.78-3.27.92l.24.26c-.11.24-.34.11-.58.1l.36.39c-1.73.68-1.68,1.92-3.77,2.33-.45.35.35.01.49.26-.1.49-.91.46-1.16.33.5.64,1.17.05.86.9-.59-.15.61.52-.19.73l-.74-.76c-.33.37.27.75-.41.99-.93-.01.38-1.49-.87-1.01-.56.37-.17,2.73-1.55,2.84-.73.98,1.25,1.13-.22,1.6l1.17.14c-.09.37.29.74-.39.86-.37-.25-.96-.51-1.3-.39,1.61.02-.55,1.59,1.08,1.86l-.45.19c.07,0,.13.09.14.17l-.54.36c.46,0,1.34-.35,1.3.51l-.74.59c.49.38.3.74.56,1.11l2.91-.3c-.25-.25-.7-.26-.73-.63.51-.6.81.27,1.19-.46l-.47-.26c.13.13.24.13.13.25-.08.37-.33.12-.46-.13-.05-.62.74-.6,1.1-.34.75-.47-.31-.99-.21-1.24.84.64,1.3-.71,1.99-.56l-.59-.39c.27-.98,1.1-.68,1.55-.66l-.36-.39c.89-.32.57-2.06,2-.75l-.24-.26c.28-.31.65-.91,1.21-.58-.08-.19-.14-.46-.02-.59.49.54.62-.11,1.09-.47-.42,0-.69-.87-1.14-.89.42-1.22,1.15.54,1.83.24.22-.6-.58-.3-.81-.56,1.25-.02,1.32-2.85,2.72-1.51l-.22.72c.58.17.8.07.68-.07-.11.11-.22-.02-.34-.15.89-1.41,2.51.34,3.63-.56-.23-.27-.45-.29-.57-.55.45-.59,1.25,1.36,1.94.33l-.34-.28c.23-.35.68.08.68.2-.56-1.42,2.05-.75,1.98-2.87.79.59,2.36.64,2.62.06.27-1.08-.89-.74-.98-1.62.47-.18,1.02.51,1.61-.03.31.79-.76,2.12.72,2.09l.02-.5c-.11.11-.24.34-.47.31-.56-.33.02-.62.03-.86l1.5-.28c.42.81-.49.92-.5,1.17,1.04-.59,1.92-2.33,3.17-2.16l-.21-.28c1.58.23.22-1.84,1.77-.84.48-.42-.52-.84.31-1.19.24-.09.21.28.21.41,1.15-.05.18-.97,1.42-.51l-.52-.83c1.37.23,3.1,1.4,3.96.68-.29-.69-.88-.41-1.3-.86,1.76.8,3.3-.87,4.77-.6-.19.72,1.02,1.21.38,1.96-.49-.85-.68-.13-1.14-.1,1.31,1.77,2.58-1.87,3.32-.21l-.03-.76c.22.04.87.43.6.75l1.24-.86c-.64-.4-2.04-1.33-2.13-.46-.62-.63.41-.67-.19-1.43,1.28.89.42-.67,1.46-.69-.13,1.15,1.37,1.11,1.47,1.62.26-.28,1.1,0,1.46.27.58-.06,1.62-1.26,2.61-1.16-.43-.23-1.08-.5-1.22-1.16.54.25,1.02.1.89-.69-1.95-.94-.02,1.9-1.68,1.4-.59-.77-1.04-.87-1.84-.91.19-.59-.02-.76-.05-1.4,1.42,1.58,2.38-.5,3.8.09.64.41.58,1.66,1.75,1.57l-.8.81c.91-.78.39.48,1.31.45l-.5-.51c.5-.26.72-.2,1.13.15l-.69-.8c.26-.19.76-.45.91.1.01-.24,0-.43-.05-.59.1.14.26.2.59.08-.22-.05-.35.04-.43-.23,1.34-.12.04-1.08.86-1.2-.18-.18-.02-.51.23-.7.36,1.46,1.98,1.24,2.59,1.94v-.02s1.21.33,1.21.33c-.25-.07-.11-.52.16-.75l-.05.02c.29-.31-.8-1.49.33-1.31l.64.3c-.11-.03-.07-.27-.05-.4l.65.26c.53-1.57,1.79.39,2.63-.52-.26.18-.72.19-.64-.3.16-.21.49-.12.69.06l-.09-.15c.7.14,1.41.32,2.12.48-.27-.46-1.35-.26-.99-.93.13-.73.84-.14,1.2-.17.04.4-.51.88.17.95.04-.21.56-.74.21-.96.74.25,1.75.28,2.48.84.15-.21-.18-.31-.29-.34l-.02.12c-.44-.13-.28-.98-.96-.41-.34-1.26,1.04-.6,1.69-.92l-1.27-.63c1.46-2.16,4.35-.77,6.18-1.1-.46.5-.98.21-.72,1.2,1.23.26,1.03.07,2.2.04l-.11-.03c.48-.63,1.47.2,1.68-.77-.36-.5-.73.68-.96-.43l1.44-.19c-.57-.58-1.44.19-2.02.14-.38.14.82,0,.77.76-1.33.23-1.78-.43-2.64-1.34-.55-.69.43-.9.68-.96,1.08.98,2.41,1.26,3.64.51l.57-.98c.8.65.8,2.21,1.94,1.8l-.46-.54c.22-.28.37-.4.5-.41-.59-.37-1.24-.78-1.79-1.18.44-1.41,2.06.29,3.1.37-.08-.16-.44-.14-.6-.46,1.43-.58,3.25.7,4.42.71.39-.65-1.01-.22-.92-1.1.66.22,1.22-.62,1.51.13-.45-1.07,1.37-.31.05-1.16,2.1-.85,4.66-.21,6.96.11-.16-.32-.2-.6-.14-.84-.74.13-1.89-.03-2.42-.74.4-.64,1.28.59,1.37.23-.29-.24-.79-.16-.88-.71.55-.72,1.04.11,1.51.15l-.2.32c1.52.55,1.06,1.83,2.5,1.3.44-.76-.09-.56-.22-1.4.4.28,1.4-.81,1.89.04l-.89.2c.66.14,1.26.06,1.74.29-.07-.17-.13-.35-.28-.41.54.2,1.17.05,1.51.57l.02-.92c-.24.44-1.13.63-1.35.15-.02-.8.95-.43,1.34-.55-1.78,0-2.01-1.42-3.41-.61l.29.24c-.82.82-1.94-.16-2.74-.01.2-.22.2-.55.07-.69-1.68.97-3.53.69-5.49,1.46l-.76-.78.07.68c-.95.46-.37-.91-1-.74.24-.04.22.08.3.24-1.28-.57-.54.73-1.22.62.43.67,1.29.05,1.16,1.05-1.28-.57-3,.14-3.45-1.44-2.03,1.04-4.86.51-6.69.69-.19.33.2.19.14.44-.89-.79-2.26,1.12-2.43.29-.3.3-.32.94-.37,1.18-.53-.31-1.12-.39-1.72-.39l.47.15-.02.12-.67-.21v-.06c-1.48.04-3.1.6-4.59,0,.87.38.03,1.04.45,1.29-.95-1.17-2.55-.85-3.81-.44.07.27.02.52.22.7l-.87-.38.17.31c-1.27.56-3.07-.55-3.81.28.58.03.65.3.81.73-.96.2-1.86.39-3.08.27.08.07.14.15.17.25-.26.19-.7-.06-1.03-.14l.12.67c-.64-.15-1.29.37-2.1.03-.08.79-1.81-.24-2.51.27-.34-.08.85.58,0,.76-.5-1.39-1.09.25-1.58-1.26l-.58.76-.37-.72c-.22,1.61-1.12-.37-1.92.35.1.15.21.17.19.3-.34-.07-1.06.03-.64-.52-.49.15-2.27.28-1.29.87-.18-.42.62-.25.96-.18.15.66-.67.62-.64,1.38-.04-.06-.17-.15-.28-.24v.43c-1.12-.45-1.91.32-2.85-.39.02.21-.09.42-.42.47l-.26-.81-.97.32.82,1.04c-1,.57-2.17-.53-3.12-.45.21,1.43-1.89.02-2.26,1.47l.8.14c-1.55.23-1.5,1.14-3.02,1.14,1-.84,1.09-.58,2.42-2.25-1.51,1.13-3.19.24-4.47,1.55.21.28.67.36.41.81-.54-.59-1.45.52-1.5-.36-.39.44-.2,1.22-.46,1.43l-1.95-.39.11.14c-2.02,2.86-5.56.63-7.96,2.55l.22.4-.93-.34c.7.19-.02.62.09,1l-2.11-.21c.11.38.57,1.17.92.84ZM40.63,9.4l.44-.07c.07-.07.16-.1.28-.05l-.28.05c-.18.17-.24.57-.44.07ZM80.23,1.8c.27.35-.28.17-.41.25l.72-.03c.06-.24-.19-.19-.3-.23ZM42.25,14.64l-.06.62-.42-.33.49-.28ZM36.44,16.53l.68.12v.13s-.68-.12-.68-.12v-.12ZM28.47,14.44s.09.03.15.06c-.04,0-.1-.03-.15-.06-.59-.22-.42.81-1.12.01.16-.96.75-.25,1.12-.01ZM38.83,10.95c.23.04.34.06.47-.04-.2-.29-.75-.64-.49-.85.32.31,1.03.19,1.21.73-.77-.4-.71,1.25-1.18.15ZM52.98,7.31l-.14.1.66.28-.52-.38ZM55.69,7.21c.48.63,1.24.32,1.82.35,0-.64-.73-1.21-1.36-.99-.88-.36-.05,1.01-.46.64ZM34.63,13.46l.31.43-.12.1.68.11c-.54.92-1.49-.12-1.95-.2.36-.07,1.67.78,1.08-.45ZM61.25,6.25c.65.29,1.76.62,1.78,1.14-.18-.95-1.07-1.2-1.32-1.14-.13.09-.25.06-.46,0ZM61.63,8.02c-.89-.24-1.04-.66-1.86-1.39.69-.59,1.19.57,1.21,1.09.65.3.4-.28.66-.46l-.02.77ZM60.19,5.58l-.29.21c-.29.48-.12,1.56-.91.63l.91-.63c.06-.11.16-.19.29-.21ZM66.92,4.14l-.4-.25c.33-.04.4.09.4.25l.33.22c-.64.5-.34.09-.33-.22ZM61.85,5.51l-.96.12c.16.43.69.05.96-.12ZM66.89,5.02c-.38.15-1.39.5-1.26.41-.01-.52.95-.63,1.26-.41ZM88,2.5l-.6.05.18-.72.42.67ZM81.09,4.17l.09-.36h.35s-.44.36-.44.36ZM74.67,5.39c0-.15-.05-.33-.13-.47-.11-.04-.21-.11-.28-.24.09-.02.2.09.28.24.29.1.65-.06.79-.29-.17-.31-.55-.17-.75-.36.44-.91,2.21,1.23,1.41-.98.3.23,1.27.67,1.04,1.12-.7,0-1.93.46-2.36.99,0,.13-.04.23-.16.27.02-.09.08-.18.16-.27ZM66.14,7.64c-.25,0-.37-.05-.44-.11-.24-.12-.46-.34-.46-.66.56.16.3.49.46.66.15.07.3.12.44.11ZM64.65,8.11l.88.26-.5-.4,1.39.66c-.58.6-1.53.07-1.77-.51ZM64.47,8.6l-.28-.5.37.5h-.09s.06.12.06.12l-1.4-.02,1.33-.09ZM50.71,10.83c0,1.97,1.51,1,2,1.83-.11-.63.14-1.72-1.14-1.36.95-.91,1.01,1.01,1.26-.71-.5.26-1.27-.06-1.38-.08l.61-.23c-.66-1.05-.82.82-1.36.56ZM44.05,13l-.83.19.82-.07v-.12ZM24.3,20.28c.22.4-.5,1.56-1.05.88.47-.32,1.04-.51,1.05-.88ZM15.91,23.63l1.03-.04c.24,1.01-.8.31-1.14.65-.35-.4.11-.24.11-.61ZM10.24,26.2l-.35-.02.72.78-.38-.76ZM11.19,27.24c.02.49.7.41.81.29l-.81-.29ZM6.58,30.47l.32-.24-.72-.64.4.88ZM6.67,29.24c.37.53.72,1.33,1.35.55-.27-.63-.49-.51-.54-1.38-.34-.02-.44.35-.55.46.23.01.32-.35.58.03-.19.38-.55.45-.84.34-.13-.19-.27-.35-.42-.39.1.18.25.32.42.39ZM9.34,27.16c.07-.13.13-.25.12-.38l.12.13c.01.32-.11.3-.25.25-.08.14-.19.27-.3.41.16.56.89.64,1.18.86-.34-.02-.81-.41-1.02.07.12.13.13.25.35.14l-.43.35c-.91-.45-.48-.93-.07-1.42-.04-.12-.06-.26-.02-.44.05-.11.19-.03.32.03ZM4.82,27.96h.34c.24.14.25.38.38.51-.33.12-.92-.02-.72-.51ZM21.21,20.3c-.12.24.56.68.91.35l.1.88c-.22-.52-1.03-.11-1.14-.13-.44-.67,0-.49.14-1.1ZM41.02,13.26c.47.98,1.38.02,1.7.21-.5.4-1.72,1.05-1.7-.21ZM42.8,12.25c.31-.07.36-.2.49.33.21.17.37-.17.58,0-.45.62-.66-.21-1.07-.33-.08.02-.17.04-.29.04.11-.07.21-.07.29-.04ZM31.08,16l-.66-.6-.6.28,1.26.33ZM23.96,17.12c.21.4-.49.67-.72.53.26.53.71.28,1.11.2.07.03.16.03.28-.02-.09-.01-.18,0-.28.02-.19-.08-.2-.4-.28-.59l.13-.23-.58.04.35.05ZM12.19,21.36c-.23.6-.34.47-.69.45,0-.25.34-.47.69-.45ZM27.3,15.33c-.61.54.65.72.29,1.16l.35-.2c-.39.82-.66-.47-1.03-.14l.24-.22c.03-.62-.57-.2-.78-.6.25-.34,1.18-.22.93,0ZM11.37,21.3c-.45.84-.83-.31-1.29-.21.33-.73.71.29,1.29.21ZM22.16,15.41v-.12s-.69-.08-.69-.08v.12s.69.07.69.07Z"/>
      <path class="cls-1" d="M13,27.09c-.13.14-.25.19-.36.19.1-.08.22-.15.36-.19Z"/>
      <path class="cls-1" d="M45.7,15.63c-.03-.15.01-.25.08-.32.01.09,0,.19-.08.32Z"/>
      <path class="cls-1" d="M47.19,15.59s.04-.01.05-.01l.06.04-.11-.03Z"/>
      <path class="cls-1" d="M96.27,3.54c.41.68-.28.16-.53.19.25-.04.27-.56.53-.19Z"/>
      <path class="cls-1" d="M94.15,2.61c.18.19.41.3.67.33-.16.05-.34,0-.67-.33Z"/>
      <path class="cls-1" d="M95.79,2.7c-.36.2-.69.27-.97.25.25-.07.42-.37.97-.25Z"/>
      <path class="cls-1" d="M88.91,3.6c.38.4.93.07.93.07-1.22.61.39.8.54,1.11-.82-.04-.91-.59-1.48-1.19Z"/>
      <path class="cls-1" d="M87.17,3.65c.13-.03.26-.06.34-.14-.11.13-.22.16-.34.14Z"/>
      <path class="cls-1" d="M86.76,4.16c-.46-.03-.7-.51-.97-.86.48-.45.95.29,1.37.35-.31.06-.63.06-.41.51Z"/>
      <path class="cls-1" d="M73.56,8.99c.11.03.35-.02.41.26l-.73.16c-.33-.1.18-.33.32-.42Z"/>
      <path class="cls-1" d="M70.58,8.19c-.6.07-.14.73-.48.62l-.16-.95.64.33Z"/>
      <path class="cls-1" d="M69.94,3.35l.2.06c-.07,0-.14,0-.21,0v-.07Z"/>
      <path class="cls-1" d="M67.95,9.71l.62.96c-.55-.16-.73-.99-.62-.96Z"/>
      <polygon class="cls-1" points="65.87 10.9 66.28 11.15 65.14 11.07 65.87 10.9"/>
      <polygon class="cls-1" points="63.07 10.98 63.03 11.22 62.23 11.13 63.07 10.98"/>
      <path class="cls-1" d="M34.03,18.25c-.4-.82.86-.85,1.12-1.19.14,1.16-1.03-.05-1.12,1.19Z"/>
      <path class="cls-1" d="M13.78,26.3l1.13-.27c-.67.68-.22.1-1.13.27Z"/>
    </g>
  </g>
</svg>